{
  "accessors": [
    {
      "bufferView": 2,
      "componentType": 5126,
      "count": 2369,
      "max": [
        0.7092251777648926,
        2.1400959491729736,
        0.32263660430908203
      ],
      "min": [
        -0.9123520851135254,
        -0.7254897356033325,
        -0.934511125087738
      ],
      "type": "VEC3"
    },
    {
      "bufferView": 2,
      "byteOffset": 28428,
      "componentType": 5126,
      "count": 2369,
      "max": [
        1.0,
        1.0,
        1.0
      ],
      "min": [
        -1.0,
        -1.0,
        -1.0
      ],
      "type": "VEC3"
    },
    {
      "bufferView": 1,
      "componentType": 5126,
      "count": 2369,
      "max": [
        6.650000095367432,
        6.650000095367432
      ],
      "min": [
        -5.650000095367432,
        -5.643630504608154
      ],
      "type": "VEC2"
    },
    {
      "bufferView": 0,
      "componentType": 5125,
      "count": 5184,
      "type": "SCALAR"
    },
    {
      "bufferView": 2,
      "byteOffset": 56856,
      "componentType": 5126,
      "count": 2002,
      "max": [
        0.6993691325187683,
        1.9310988187789917,
        0.2890090346336365
      ],
      "min": [
        -0.895624577999115,
        -0.16066835820674896,
        -0.7876545786857605
      ],
      "type": "VEC3"
    },
    {
      "bufferView": 2,
      "byteOffset": 80880,
      "componentType": 5126,
      "count": 2002,
      "max": [
        1.0,
        0.9998270869255066,
        0.9982430934906006
      ],
      "min": [
        -1.0,
        -0.998242974281311,
        -0.9982430338859558
      ],
      "type": "VEC3"
    },
    {
      "bufferView": 1,
      "byteOffset": 18952,
      "componentType": 5126,
      "count": 2002,
      "max": [
        6.646827220916748,
        6.6468000411987305
      ],
      "min": [
        -5.650000095367432,
        -5.28550910949707
      ],
      "type": "VEC2"
    },
    {
      "bufferView": 0,
      "byteOffset": 20736,
      "componentType": 5125,
      "count": 3996,
      "type": "SCALAR"
    },
    {
      "bufferView": 2,
      "byteOffset": 104904,
      "componentType": 5126,
      "count": 1009,
      "max": [
        0.5340354442596436,
        2.7966761589050293,
        0.45650213956832886
      ],
      "min": [
        -0.5308705568313599,
        -0.7190960645675659,
        -0.6689793467521667
      ],
      "type": "VEC3"
    },
    {
      "bufferView": 2,
      "byteOffset": 117012,
      "componentType": 5126,
      "count": 1009,
      "max": [
        0.9999680519104004,
        0.999977707862854,
        0.9999068379402161
      ],
      "min": [
        -0.9996850490570068,
        -0.9999996423721313,
        -0.999908447265625
      ],
      "type": "VEC3"
    },
    {
      "bufferView": 1,
      "byteOffset": 34968,
      "componentType": 5126,
      "count": 1009,
      "max": [
        6.632354736328125,
        6.631709098815918
      ],
      "min": [
        -5.650000095367432,
        -5.577394008636475
      ],
      "type": "VEC2"
    },
    {
      "bufferView": 0,
      "byteOffset": 36720,
      "componentType": 5125,
      "count": 2700,
      "type": "SCALAR"
    },
    {
      "bufferView": 2,
      "byteOffset": 129120,
      "componentType": 5126,
      "count": 1220,
      "max": [
        0.4257022440433502,
        2.4012510776519775,
        0.3718116283416748
      ],
      "min": [
        -0.4225374758243561,
        -0.9829422831535339,
        -0.4927208423614502
      ],
      "type": "VEC3"
    },
    {
      "bufferView": 2,
      "byteOffset": 143760,
      "componentType": 5126,
      "count": 1220,
      "max": [
        1.0,
        0.9999054074287415,
        1.0
      ],
      "min": [
        -1.0,
        -0.9999991059303284,
        -1.0
      ],
      "type": "VEC3"
    },
    {
      "bufferView": 1,
      "byteOffset": 43040,
      "componentType": 5126,
      "count": 1220,
      "max": [
        6.634743690490723,
        6.636868953704834
      ],
      "min": [
        -5.650000095367432,
        -5.577394008636475
      ],
      "type": "VEC2"
    },
    {
      "bufferView": 0,
      "byteOffset": 47520,
      "componentType": 5125,
      "count": 2910,
      "type": "SCALAR"
    },
    {
      "bufferView": 2,
      "byteOffset": 158400,
      "componentType": 5126,
      "count": 206,
      "max": [
        0.3643185496330261,
        1.6173365116119385,
        0.20178745687007904
      ],
      "min": [
        -0.3683626055717468,
        -0.9279776215553284,
        -0.41850411891937256
      ],
      "type": "VEC3"
    },
    {
      "bufferView": 2,
      "byteOffset": 160872,
      "componentType": 5126,
      "count": 206,
      "max": [
        1.0,
        0.0595858097076416,
        0.9999766945838928
      ],
      "min": [
        -1.0,
        -0.05951528251171112,
        -0.999977171421051
      ],
      "type": "VEC3"
    },
    {
      "bufferView": 1,
      "byteOffset": 52800,
      "componentType": 5126,
      "count": 206,
      "max": [
        6.28920841217041,
        6.16905403137207
      ],
      "min": [
        -3.3110294342041016,
        -4.780149459838867
      ],
      "type": "VEC2"
    },
    {
      "bufferView": 0,
      "byteOffset": 59160,
      "componentType": 5125,
      "count": 336,
      "type": "SCALAR"
    },
    {
      "bufferView": 2,
      "byteOffset": 163344,
      "componentType": 5126,
      "count": 1735,
      "max": [
        0.9468328356742859,
        3.5775489807128906,
        0.8430875539779663
      ],
      "min": [
        -1.317389965057373,
        -5.554869174957275,
        -0.6726250648498535
      ],
      "type": "VEC3"
    },
    {
      "bufferView": 2,
      "byteOffset": 184164,
      "componentType": 5126,
      "count": 1735,
      "max": [
        1.0,
        0.9998947381973267,
        0.9999428391456604
      ],
      "min": [
        -1.0,
        -1.0,
        -0.9999172687530518
      ],
      "type": "VEC3"
    },
    {
      "bufferView": 1,
      "byteOffset": 54448,
      "componentType": 5126,
      "count": 1735,
      "max": [
        6.599761009216309,
        6.502208709716797
      ],
      "min": [
        -5.650000095367432,
        -5.650000095367432
      ],
      "type": "VEC2"
    },
    {
      "bufferView": 0,
      "byteOffset": 60504,
      "componentType": 5125,
      "count": 4476,
      "type": "SCALAR"
    },
    {
      "bufferView": 2,
      "byteOffset": 204984,
      "componentType": 5126,
      "count": 32,
      "max": [
        0.45464345812797546,
        1.454727053642273,
        0.5699974298477173
      ],
      "min": [
        -0.4299394488334656,
        -1.094457745552063,
        -0.571977972984314
      ],
      "type": "VEC3"
    },
    {
      "bufferView": 2,
      "byteOffset": 205368,
      "componentType": 5126,
      "count": 32,
      "max": [
        0.8897587060928345,
        0.1161414161324501,
        0.748754620552063
      ],
      "min": [
        -0.9557497501373291,
        -0.1534550040960312,
        -0.803220808506012
      ],
      "type": "VEC3"
    },
    {
      "bufferView": 1,
      "byteOffset": 68328,
      "componentType": 5126,
      "count": 32,
      "max": [
        6.2227864265441895,
        4.030124187469482
      ],
      "min": [
        -5.5686187744140625,
        -4.981172561645508
      ],
      "type": "VEC2"
    },
    {
      "bufferView": 0,
      "byteOffset": 78408,
      "componentType": 5125,
      "count": 48,
      "type": "SCALAR"
    },
    {
      "bufferView": 2,
      "byteOffset": 205752,
      "componentType": 5126,
      "count": 1665,
      "max": [
        1.5688393115997314,
        3.7369401454925537,
        0.670240044593811
      ],
      "min": [
        -0.7613087892532349,
        -0.6062973737716675,
        -0.6608922481536865
      ],
      "type": "VEC3"
    },
    {
      "bufferView": 2,
      "byteOffset": 225732,
      "componentType": 5126,
      "count": 1665,
      "max": [
        1.0,
        0.9999983906745911,
        1.0
      ],
      "min": [
        -1.0,
        -0.9999385476112366,
        -1.0
      ],
      "type": "VEC3"
    },
    {
      "bufferView": 1,
      "byteOffset": 68584,
      "componentType": 5126,
      "count": 1665,
      "max": [
        6.518467903137207,
        6.618904113769531
      ],
      "min": [
        -5.650000095367432,
        -5.577394008636475
      ],
      "type": "VEC2"
    },
    {
      "bufferView": 0,
      "byteOffset": 78600,
      "componentType": 5125,
      "count": 4068,
      "type": "SCALAR"
    },
    {
      "bufferView": 2,
      "byteOffset": 245712,
      "componentType": 5126,
      "count": 1430,
      "max": [
        1.27632474899292,
        4.081749439239502,
        0.5348237752914429
      ],
      "min": [
        -0.6848782896995544,
        -0.5558746457099915,
        -0.525475800037384
      ],
      "type": "VEC3"
    },
    {
      "bufferView": 2,
      "byteOffset": 262872,
      "componentType": 5126,
      "count": 1430,
      "max": [
        1.0,
        0.9999998807907104,
        1.0
      ],
      "min": [
        -1.0,
        -0.9999790191650391,
        -1.0
      ],
      "type": "VEC3"
    },
    {
      "bufferView": 1,
      "byteOffset": 81904,
      "componentType": 5126,
      "count": 1430,
      "max": [
        6.589956760406494,
        6.622416019439697
      ],
      "min": [
        -5.650000095367432,
        -5.650000095367432
      ],
      "type": "VEC2"
    },
    {
      "bufferView": 0,
      "byteOffset": 94872,
      "componentType": 5125,
      "count": 3414,
      "type": "SCALAR"
    },
    {
      "bufferView": 2,
      "byteOffset": 280032,
      "componentType": 5126,
      "count": 242,
      "max": [
        1.4235706329345703,
        4.013043403625488,
        0.4671039581298828
      ],
      "min": [
        -0.469723641872406,
        -0.47575628757476807,
        -0.44874680042266846
      ],
      "type": "VEC3"
    },
    {
      "bufferView": 2,
      "byteOffset": 282936,
      "componentType": 5126,
      "count": 242,
      "max": [
        1.0,
        0.08907589316368103,
        1.0
      ],
      "min": [
        -1.0,
        -0.08918088674545288,
        -1.0
      ],
      "type": "VEC3"
    },
    {
      "bufferView": 1,
      "byteOffset": 93344,
      "componentType": 5126,
      "count": 242,
      "max": [
        6.137543201446533,
        5.776698112487793
      ],
      "min": [
        -3.7505950927734375,
        -4.780149459838867
      ],
      "type": "VEC2"
    },
    {
      "bufferView": 0,
      "byteOffset": 108528,
      "componentType": 5125,
      "count": 462,
      "type": "SCALAR"
    }
  ],
  "asset": {
    "extras": {
      "author": "KeisukePaws (https://sketchfab.com/KeisukePaws)",
      "license": "CC-BY-4.0 (http://creativecommons.org/licenses/by/4.0/)",
      "source": "https://sketchfab.com/3d-models/cybernetic-arms-57b2232ebbe94f77a89901df5eb5c7f3",
      "title": "Cybernetic_Arms"
    },
    "generator": "Sketchfab-13.52.1",
    "version": "2.0"
  },
  "bufferViews": [
    {
      "buffer": 0,
      "byteLength": 110376,
      "name": "floatBufferViews",
      "target": 34963
    },
    {
      "buffer": 0,
      "byteLength": 95280,
      "byteOffset": 110376,
      "byteStride": 8,
      "name": "floatBufferViews",
      "target": 34962
    },
    {
      "buffer": 0,
      "byteLength": 285840,
      "byteOffset": 205656,
      "byteStride": 12,
      "name": "floatBufferViews",
      "target": 34962
    }
  ],
  "buffers": [
    {
      "byteLength": 491496,
      "uri": "scene.bin"
    }
  ],
  "materials": [
    {
      "doubleSided": true,
      "name": "Color",
      "pbrMetallicRoughness": {
        "baseColorFactor": [
          0.0,
          0.0,
          0.0,
          1.0
        ],
        "metallicFactor": 0.0,
        "roughnessFactor": 0.5
      }
    },
    {
      "doubleSided": true,
      "name": "Metal",
      "pbrMetallicRoughness": {
        "baseColorFactor": [
          0.226583,
          0.226583,
          0.226583,
          1.0
        ],
        "metallicFactor": 0.0,
        "roughnessFactor": 0.5
      }
    },
    {
      "doubleSided": true,
      "emissiveFactor": [
        0.03893165904052588,
        0.9099581246050142,
        1.0
      ],
      "name": "Glow",
      "pbrMetallicRoughness": {
        "baseColorFactor": [
          0.0,
          0.46660300000000016,
          0.7999999999999999,
          1.0
        ],
        "metallicFactor": 0.0,
        "roughnessFactor": 0.5
      }
    },
    {
      "doubleSided": true,
      "name": "Main_Armor_Cover",
      "pbrMetallicRoughness": {
        "baseColorFactor": [
          0.8,
          0.0,
          0.00116489,
          1.0
        ],
        "metallicFactor": 0.0,
        "roughnessFactor": 0.5
      }
    }
  ],
  "meshes": [
    {
      "name": "Object_0",
      "primitives": [
        {
          "attributes": {
            "NORMAL": 1,
            "POSITION": 0,
            "TEXCOORD_0": 2
          },
          "indices": 3,
          "material": 0,
          "mode": 4
        }
      ]
    },
    {
      "name": "Object_1",
      "primitives": [
        {
          "attributes": {
            "NORMAL": 5,
            "POSITION": 4,
            "TEXCOORD_0": 6
          },
          "indices": 7,
          "material": 1,
          "mode": 4
        }
      ]
    },
    {
      "name": "Object_2",
      "primitives": [
        {
          "attributes": {
            "NORMAL": 9,
            "POSITION": 8,
            "TEXCOORD_0": 10
          },
          "indices": 11,
          "material": 0,
          "mode": 4
        }
      ]
    },
    {
      "name": "Object_3",
      "primitives": [
        {
          "attributes": {
            "NORMAL": 13,
            "POSITION": 12,
            "TEXCOORD_0": 14
          },
          "indices": 15,
          "material": 1,
          "mode": 4
        }
      ]
    },
    {
      "name": "Object_4",
      "primitives": [
        {
          "attributes": {
            "NORMAL": 17,
            "POSITION": 16,
            "TEXCOORD_0": 18
          },
          "indices": 19,
          "material": 2,
          "mode": 4
        }
      ]
    },
    {
      "name": "Object_5",
      "primitives": [
        {
          "attributes": {
            "NORMAL": 21,
            "POSITION": 20,
            "TEXCOORD_0": 22
          },
          "indices": 23,
          "material": 3,
          "mode": 4
        }
      ]
    },
    {
      "name": "Object_6",
      "primitives": [
        {
          "attributes": {
            "NORMAL": 25,
            "POSITION": 24,
            "TEXCOORD_0": 26
          },
          "indices": 27,
          "material": 2,
          "mode": 4
        }
      ]
    },
    {
      "name": "Object_7",
      "primitives": [
        {
          "attributes": {
            "NORMAL": 29,
            "POSITION": 28,
            "TEXCOORD_0": 30
          },
          "indices": 31,
          "material": 0,
          "mode": 4
        }
      ]
    },
    {
      "name": "Object_8",
      "primitives": [
        {
          "attributes": {
            "NORMAL": 33,
            "POSITION": 32,
            "TEXCOORD_0": 34
          },
          "indices": 35,
          "material": 1,
          "mode": 4
        }
      ]
    },
    {
      "name": "Object_9",
      "primitives": [
        {
          "attributes": {
            "NORMAL": 37,
            "POSITION": 36,
            "TEXCOORD_0": 38
          },
          "indices": 39,
          "material": 2,
          "mode": 4
        }
      ]
    }
  ],
  "nodes": [
    {
      "children": [
        1
      ],
      "matrix": [
        1.0,
        0.0,
        0.0,
        0.0,
        0.0,
        0.005139875225723012,
        -0.9999867677688599,
        0.0,
        0.0,
        0.9999867677688599,
        0.005139875225723012,
        0.0,
        0.0,
        0.0,
        0.0,
        1.0
      ],
      "name": "Sketchfab_model"
    },
    {
      "children": [
        2
      ],
      "name": "root"
    },
    {
      "children": [
        3,
        6,
        10,
        13
      ],
      "matrix": [
        1.0,
        0.0,
        0.0,
        0.0,
        0.0,
        2.220446049250313e-16,
        1.0,
        0.0,
        0.0,
        -1.0,
        2.220446049250313e-16,
        0.0,
        0.0,
        0.0,
        0.0,
        1.0
      ],
      "name": "GLTF_SceneRootNode"
    },
    {
      "children": [
        4,
        5
      ],
      "matrix": [
        0.10000002384185791,
        0.0,
        0.0,
        0.0,
        0.0,
        0.09000002592802048,
        0.0,
        0.0,
        0.0,
        0.0,
        0.10000002384185791,
        0.0,
        0.034693822264671326,
        0.7856637239456177,
        0.06710544973611832,
        1.0
      ],
      "name": "Hand_0"
    },
    {
      "mesh": 0,
      "name": "Object_4"
    },
    {
      "mesh": 1,
      "name": "Object_5"
    },
    {
      "children": [
        7,
        8,
        9
      ],
      "matrix": [
        0.10000002384185791,
        0.0,
        0.0,
        0.0,
        0.0,
        -0.09000002592801944,
        -1.3589626142549978e-08,
        0.0,
        0.0,
        1.5099583852829047e-08,
        -0.10000002384185676,
        0.0,
        0.034693822264671326,
        0.6576720476150513,
        0.0729236900806427,
        1.0
      ],
      "name": "Lower_Arm_1"
    },
    {
      "mesh": 2,
      "name": "Object_7"
    },
    {
      "mesh": 3,
      "name": "Object_8"
    },
    {
      "mesh": 4,
      "name": "Object_9"
    },
    {
      "children": [
        11,
        12
      ],
      "matrix": [
        0.10000002384185791,
        0.0,
        0.0,
        0.0,
        0.0,
        0.09000002592802048,
        0.0,
        0.0,
        0.0,
        0.0,
        0.10000002384185791,
        0.0,
        0.034693822264671326,
        0.5437394380569458,
        0.08008551597595215,
        1.0
      ],
      "name": "Armour_Covers_2"
    },
    {
      "mesh": 5,
      "name": "Object_11"
    },
    {
      "mesh": 6,
      "name": "Object_12"
    },
    {
      "children": [
        14,
        15,
        16
      ],
      "matrix": [
        -0.08000002056360152,
        0.0,
        -1.2079667307264516e-08,
        0.0,
        0.0,
        0.07200001925230026,
        0.0,
        0.0,
        1.2079667307264516e-08,
        0.0,
        -0.08000002056360152,
        0.0,
        0.02299639582633972,
        0.12667524814605713,
        0.08558794111013412,
        1.0
      ],
      "name": "Upper_Arm_3"
    },
    {
      "mesh": 7,
      "name": "Object_14"
    },
    {
      "mesh": 8,
      "name": "Object_15"
    },
    {
      "mesh": 9,
      "name": "Object_16"
    }
  ],
  "scene": 0,
  "scenes": [
    {
      "name": "Sketchfab_Scene",
      "nodes": [
        0
      ]
    }
  ]
}
